<?xml version="1.0" encoding="UTF-8" standalone="no"?>
<svg width="133px" height="41px" viewBox="0 0 133 41" version="1.1" xmlns="http://www.w3.org/2000/svg" xmlns:xlink="http://www.w3.org/1999/xlink">
    <!-- Generator: Sketch 47.1 (45422) - http://www.bohemiancoding.com/sketch -->
    <title>Heliyon</title>
    <desc>Created with Sketch.</desc>
    <defs></defs>
    <g id="Page-1" stroke="none" stroke-width="1" fill="none" fill-rule="evenodd">
        <g id="Heliyon-v3" transform="translate(-35.000000, -23.000000)" fill="#FFFFFF">
            <g id="Group-20" transform="translate(0.000000, -1.000000)">
                <path d="M35.1582031,55 L35.1582031,24.7714844 L41.4130859,24.7714844 L41.4130859,36.296875 L53.2255859,36.296875 L53.2255859,24.7714844 L59.5009766,24.7714844 L59.5009766,55 L53.2255859,55 L53.2255859,41.5058594 L41.4130859,41.5058594 L41.4130859,55 L35.1582031,55 Z M68.4190044,38.1425781 C67.6738835,38.9902386 67.2056265,40.1386646 67.0142193,41.5878906 L76.0991802,41.5878906 C76.0034766,40.042961 75.5352196,38.8706095 74.6943951,38.0708008 C73.8535705,37.2709921 72.8111005,36.8710938 71.5669537,36.8710938 C70.2134313,36.8710938 69.1641254,37.2949176 68.4190044,38.1425781 Z M76.5913677,33.0976562 C78.0816095,33.7949254 79.312066,34.8955003 80.282774,36.3994141 C81.1577783,37.7255926 81.7251555,39.2636631 81.9849224,41.0136719 C82.1353138,42.0390676 82.1968366,43.5156154 82.1694927,45.4433594 L66.8706646,45.4433594 C66.9526963,47.6855581 67.6567908,49.257808 68.9829693,50.1601562 C69.7896139,50.7207059 70.7603074,51.0009766 71.8950787,51.0009766 C73.0982097,51.0009766 74.075739,50.6591831 74.8276958,49.9755859 C75.2378541,49.6064435 75.6001552,49.0937533 75.9146099,48.4375 L81.8823833,48.4375 C81.731992,49.7636785 81.0415692,51.1103447 79.8110943,52.4775391 C77.8970222,54.6513781 75.2173615,55.7382812 71.7720318,55.7382812 C68.9282676,55.7382812 66.4195036,54.8222748 64.2456646,52.9902344 C62.0718256,51.158194 60.9849224,48.177755 60.9849224,44.0488281 C60.9849224,40.1796682 61.9658696,37.2129009 63.9277935,35.1484375 C65.8897174,33.0839741 68.4360786,32.0517578 71.5669537,32.0517578 C73.426338,32.0517578 75.1011259,32.4003871 76.5913677,33.0976562 Z M89.7647667,55 L83.9200401,55 L83.9200401,24.7714844 L89.7647667,24.7714844 L89.7647667,55 Z M99.1647282,29.9804688 L93.2379704,29.9804688 L93.2379704,24.5869141 L99.1647282,24.5869141 L99.1647282,29.9804688 Z M93.2379704,32.6464844 L99.1647282,32.6464844 L99.1647282,55 L93.2379704,55 L93.2379704,32.6464844 Z M103.417229,59.2861328 L104.15551,59.3271484 C104.729732,59.3544923 105.276601,59.3339847 105.796135,59.265625 C106.315669,59.1972653 106.753164,59.0400403 107.108635,58.7939453 C107.450434,58.5615223 107.768301,58.0761756 108.062248,57.3378906 C108.356195,56.5996057 108.475823,56.1484383 108.421135,55.984375 L100.21801,32.6464844 L106.718987,32.6464844 L111.599846,49.1347656 L116.214104,32.6464844 L122.427971,32.6464844 L114.758049,54.6308594 C113.281479,58.8691618 112.112546,61.4975535 111.251213,62.5161133 C110.389881,63.5346731 108.667242,64.0439453 106.083244,64.0439453 C105.56371,64.0439453 105.146722,64.0405274 104.832268,64.0336914 C104.517813,64.0268554 104.046138,64.0029299 103.417229,63.9619141 L103.417229,59.2861328 Z M137.529104,49.0527344 C138.445124,47.8359314 138.903128,46.1064565 138.903128,43.8642578 C138.903128,41.6220591 138.445124,39.8960021 137.529104,38.6860352 C136.613084,37.4760682 135.300597,36.8710938 133.591604,36.8710938 C131.882611,36.8710938 130.566707,37.4760682 129.64385,38.6860352 C128.720994,39.8960021 128.259573,41.6220591 128.259573,43.8642578 C128.259573,46.1064565 128.720994,47.8359314 129.64385,49.0527344 C130.566707,50.2695373 131.882611,50.8779297 133.591604,50.8779297 C135.300597,50.8779297 136.613084,50.2695373 137.529104,49.0527344 Z M142.204885,52.2827148 C140.318157,54.6137812 137.453928,55.7792969 133.612112,55.7792969 C129.770296,55.7792969 126.906067,54.6137812 125.019339,52.2827148 C123.13261,49.9516485 122.18926,47.1455242 122.18926,43.8642578 C122.18926,40.6376792 123.13261,37.8418087 125.019339,35.4765625 C126.906067,33.1113163 129.770296,31.9287109 133.612112,31.9287109 C137.453928,31.9287109 140.318157,33.1113163 142.204885,35.4765625 C144.091614,37.8418087 145.034964,40.6376792 145.034964,43.8642578 C145.034964,47.1455242 144.091614,49.9516485 142.204885,52.2827148 Z M164.965687,33.9282227 C166.435421,35.1381896 167.170277,37.1445172 167.170277,39.9472656 L167.170277,55 L161.181995,55 L161.181995,41.4033203 C161.181995,40.2275332 161.02477,39.3251985 160.710316,38.6962891 C160.136094,37.5478458 159.042355,36.9736328 157.429066,36.9736328 C155.446634,36.9736328 154.086296,37.8144447 153.348011,39.4960938 C152.965197,40.3847701 152.773792,41.5195243 152.773792,42.9003906 L152.773792,55 L146.949574,55 L146.949574,32.6875 L152.589222,32.6875 L152.589222,35.9482422 C153.341179,34.7997989 154.052109,33.9726588 154.722034,33.4667969 C155.925165,32.5644486 157.449564,32.1132812 159.295277,32.1132812 C161.605835,32.1132812 163.495953,32.7182557 164.965687,33.9282227 Z" id="Heliyon"></path>
            </g>
        </g>
    </g>
</svg>