<?xml version="1.0" encoding="utf-8"?>
<!-- Generator: Adobe Illustrator 24.0.1, SVG Export Plug-In . SVG Version: 6.00 Build 0)  -->
<svg version="1.1" id="Layer_1" xmlns="http://www.w3.org/2000/svg" xmlns:xlink="http://www.w3.org/1999/xlink" x="0px" y="0px"
	 viewBox="0 0 117 34" style="enable-background:new 0 0 117 34;" xml:space="preserve" width="117" height="34">
<style type="text/css">
	.st0{fill:#FFFFFF;}
</style>
<g>
	<g>
		<path class="st0" d="M106.7,12.1c-0.2-0.2-0.4-0.3-0.7-0.4c-0.3-0.1-0.6-0.1-0.9-0.2c-0.3,0-0.5,0-0.7,0c-0.4,0-0.8,0.1-1.2,0.2
			c-0.4,0.1-0.8,0.3-1.1,0.5c-0.3,0.2-0.6,0.5-0.8,0.9c-0.2,0.3-0.3,0.8-0.3,1.2c0,0.4,0.1,0.8,0.3,1.1c0.2,0.3,0.4,0.6,0.7,0.8
			c0.3,0.2,0.6,0.4,0.9,0.6c0.3,0.2,0.7,0.4,0.9,0.6c0.3,0.2,0.5,0.4,0.7,0.7s0.3,0.6,0.3,0.9c0,0.5-0.2,0.9-0.5,1.2
			c-0.3,0.3-0.8,0.4-1.2,0.4c-0.1,0-0.3,0-0.4,0c-0.2,0-0.3-0.1-0.4-0.1c-0.1-0.1-0.2-0.1-0.3-0.2c-0.1-0.1-0.1-0.2-0.1-0.4l0-0.2
			l0.1-0.2h-1.5c-0.1,0.2-0.2,0.3-0.3,0.5c-0.1,0.2-0.1,0.3-0.1,0.5c0,0.3,0.1,0.6,0.3,0.8c0.2,0.2,0.5,0.3,0.8,0.4
			c0.3,0.1,0.6,0.1,1,0.2c0.3,0,0.6,0,0.9,0c0.4,0,0.9-0.1,1.3-0.2c0.4-0.1,0.8-0.3,1.2-0.6c0.3-0.3,0.6-0.6,0.8-1
			c0.2-0.4,0.3-0.8,0.3-1.3c0-0.4-0.1-0.8-0.3-1.2c-0.2-0.3-0.5-0.6-0.7-0.9c-0.3-0.3-0.6-0.5-1-0.7c-0.3-0.2-0.7-0.4-1-0.6
			c-0.3-0.2-0.5-0.4-0.7-0.7c-0.2-0.2-0.3-0.5-0.3-0.8c0-0.2,0.1-0.4,0.2-0.6c0.1-0.2,0.2-0.3,0.4-0.4c0.2-0.1,0.3-0.2,0.5-0.2
			c0.2-0.1,0.4-0.1,0.6-0.1c0.1,0,0.2,0,0.3,0c0.1,0,0.3,0,0.4,0.1c0.1,0,0.2,0.1,0.3,0.2c0.1,0.1,0.1,0.2,0.1,0.3
			c0,0.1,0,0.3-0.1,0.4h1.5c0.1-0.3,0.2-0.7,0.2-1C107,12.5,106.9,12.2,106.7,12.1z M98.6,12.1c-0.2-0.2-0.4-0.3-0.7-0.4
			c-0.3-0.1-0.6-0.1-0.9-0.2c-0.3,0-0.5,0-0.7,0c-0.4,0-0.8,0.1-1.2,0.2c-0.4,0.1-0.8,0.3-1.1,0.5c-0.3,0.2-0.6,0.5-0.8,0.9
			c-0.2,0.3-0.3,0.8-0.3,1.2c0,0.4,0.1,0.8,0.3,1.1c0.2,0.3,0.4,0.6,0.7,0.8c0.3,0.2,0.6,0.4,0.9,0.6c0.3,0.2,0.7,0.4,0.9,0.6
			c0.3,0.2,0.5,0.4,0.7,0.7s0.3,0.6,0.3,0.9c0,0.5-0.2,0.9-0.5,1.2c-0.3,0.3-0.8,0.4-1.2,0.4c-0.1,0-0.3,0-0.4,0
			c-0.2,0-0.3-0.1-0.4-0.1c-0.1-0.1-0.2-0.1-0.3-0.2c-0.1-0.1-0.1-0.2-0.1-0.4l0-0.2l0.1-0.2h-1.5c-0.1,0.2-0.2,0.3-0.3,0.5
			c-0.1,0.2-0.1,0.3-0.1,0.5c0,0.3,0.1,0.6,0.3,0.8c0.2,0.2,0.5,0.3,0.8,0.4c0.3,0.1,0.6,0.1,1,0.2c0.3,0,0.6,0,0.9,0
			c0.4,0,0.9-0.1,1.3-0.2c0.4-0.1,0.8-0.3,1.2-0.6c0.3-0.3,0.6-0.6,0.8-1c0.2-0.4,0.3-0.8,0.3-1.3c0-0.4-0.1-0.8-0.3-1.2
			c-0.2-0.3-0.5-0.6-0.7-0.9c-0.3-0.3-0.6-0.5-1-0.7c-0.3-0.2-0.7-0.4-1-0.6c-0.3-0.2-0.5-0.4-0.7-0.7c-0.2-0.2-0.3-0.5-0.3-0.8
			c0-0.2,0.1-0.4,0.2-0.6c0.1-0.2,0.2-0.3,0.4-0.4c0.2-0.1,0.3-0.2,0.5-0.2c0.2-0.1,0.4-0.1,0.6-0.1c0.1,0,0.2,0,0.3,0
			c0.1,0,0.3,0,0.4,0.1c0.1,0,0.2,0.1,0.3,0.2c0.1,0.1,0.1,0.2,0.1,0.3c0,0.1,0,0.3-0.1,0.4h1.5c0.1-0.3,0.2-0.7,0.2-1
			C98.9,12.5,98.8,12.2,98.6,12.1z M88.9,14.4c-0.3,0.3-0.6,0.5-1,0.7c-0.4,0.2-0.8,0.4-1.2,0.5c-0.4,0.1-0.7,0.2-1,0.3
			c0.1-0.5,0.2-1.1,0.5-1.6c0.2-0.5,0.6-0.9,1.1-1.3c0.1-0.1,0.3-0.1,0.5-0.2c0.2,0,0.4,0,0.6,0c0.2,0,0.4,0,0.6,0.1
			c0.2,0.1,0.3,0.2,0.3,0.5C89.3,13.9,89.2,14.2,88.9,14.4z M90.8,12.3c-0.1-0.2-0.3-0.4-0.5-0.5c-0.2-0.1-0.5-0.2-0.7-0.2
			c-0.3,0-0.5-0.1-0.8-0.1c-0.7,0-1.4,0.2-1.9,0.5c-0.6,0.3-1,0.7-1.5,1.2c-0.4,0.5-0.7,1-1,1.7c-0.2,0.6-0.4,1.3-0.5,1.9
			c0,0.4-0.1,0.8-0.1,1.2c0,0.4,0,0.8,0.1,1.2c0.1,0.5,0.2,0.9,0.3,1.3c0.2,0.4,0.4,0.7,0.7,1c0.3,0.3,0.7,0.4,1.2,0.4
			c0.6,0,1.1-0.1,1.5-0.2c0.4-0.1,0.8-0.3,1.2-0.6c0.4-0.2,0.7-0.5,1-0.8c0.3-0.3,0.6-0.7,1-1.1l-1-0.7c-0.2,0.2-0.3,0.4-0.5,0.6
			c-0.2,0.2-0.4,0.4-0.6,0.6c-0.2,0.2-0.5,0.4-0.7,0.5c-0.3,0.1-0.5,0.2-0.8,0.2c-0.3,0-0.6-0.1-0.8-0.3c-0.2-0.2-0.3-0.4-0.4-0.7
			c-0.1-0.3-0.2-0.5-0.2-0.8c0-0.3,0-0.6,0-0.8v-0.3l0-0.3c0.5-0.1,1.1-0.3,1.7-0.5c0.6-0.2,1.2-0.5,1.7-0.8c0.5-0.3,1-0.7,1.3-1.2
			c0.4-0.5,0.5-1,0.5-1.7C91,12.7,90.9,12.5,90.8,12.3z M82.5,12.1c-0.2-0.2-0.4-0.3-0.6-0.3c-0.2-0.1-0.5-0.1-0.7-0.2
			c-0.3,0-0.5,0-0.7,0c-0.9,0-1.6,0.2-2.2,0.6c-0.6,0.4-1.1,0.9-1.5,1.5c-0.4,0.6-0.7,1.3-0.9,2.1c-0.2,0.8-0.3,1.5-0.3,2.3
			c0,0.4,0,0.8,0.1,1.2c0.1,0.4,0.2,0.9,0.3,1.3s0.4,0.7,0.7,1c0.3,0.3,0.7,0.4,1.2,0.4c0.5,0,1-0.1,1.4-0.2
			c0.4-0.1,0.8-0.3,1.1-0.6c0.3-0.2,0.6-0.5,0.9-0.9c0.3-0.3,0.6-0.7,0.9-1.1l-1-0.7c-0.1,0.2-0.3,0.3-0.5,0.6
			c-0.2,0.2-0.4,0.4-0.6,0.6c-0.2,0.2-0.4,0.4-0.7,0.5c-0.2,0.1-0.4,0.2-0.7,0.2c-0.3,0-0.5-0.1-0.7-0.3c-0.2-0.2-0.3-0.4-0.4-0.7
			c-0.1-0.3-0.2-0.6-0.2-0.9c0-0.3,0-0.6,0-0.8c0-0.3,0-0.7,0.1-1.2c0.1-0.4,0.1-0.9,0.3-1.3c0.1-0.4,0.3-0.8,0.5-1.2
			c0.2-0.4,0.5-0.7,0.8-0.9c0.1-0.1,0.3-0.1,0.5-0.2c0.2,0,0.4,0,0.6,0c0.1,0,0.2,0,0.3,0c0.1,0,0.2,0,0.3,0.1l0.2,0.1
			c0.1,0.1,0.1,0.1,0.1,0.2l0,0.2L81,13.8h1.4c0.2-0.3,0.3-0.7,0.3-1.1C82.7,12.4,82.6,12.2,82.5,12.1z M74.3,12.1
			c-0.2-0.2-0.4-0.3-0.6-0.3c-0.2-0.1-0.5-0.1-0.7-0.2c-0.3,0-0.5,0-0.7,0c-0.9,0-1.6,0.2-2.2,0.6c-0.6,0.4-1.1,0.9-1.5,1.5
			c-0.4,0.6-0.7,1.3-0.9,2.1c-0.2,0.8-0.3,1.5-0.3,2.3c0,0.4,0,0.8,0.1,1.2c0.1,0.4,0.2,0.9,0.3,1.3c0.2,0.4,0.4,0.7,0.7,1
			c0.3,0.3,0.7,0.4,1.2,0.4c0.5,0,1-0.1,1.4-0.2c0.4-0.1,0.8-0.3,1.1-0.6c0.3-0.2,0.6-0.5,0.9-0.9c0.3-0.3,0.6-0.7,0.9-1.1l-1-0.7
			c-0.1,0.2-0.3,0.3-0.5,0.6c-0.2,0.2-0.4,0.4-0.6,0.6c-0.2,0.2-0.4,0.4-0.7,0.5c-0.2,0.1-0.4,0.2-0.7,0.2c-0.3,0-0.5-0.1-0.7-0.3
			c-0.2-0.2-0.3-0.4-0.4-0.7c-0.1-0.3-0.2-0.6-0.2-0.9c0-0.3,0-0.6,0-0.8c0-0.3,0-0.7,0.1-1.2c0.1-0.4,0.1-0.9,0.3-1.3
			c0.1-0.4,0.3-0.8,0.5-1.2c0.2-0.4,0.5-0.7,0.8-0.9c0.1-0.1,0.3-0.1,0.5-0.2c0.2,0,0.4,0,0.6,0c0.1,0,0.2,0,0.3,0
			c0.1,0,0.2,0,0.3,0.1l0.2,0.1c0.1,0.1,0.1,0.1,0.1,0.2l0,0.2l-0.1,0.2h1.4c0.2-0.3,0.3-0.7,0.3-1.1C74.5,12.4,74.4,12.2,74.3,12.1
			z M63.6,14.5c0,0.2-0.1,0.5-0.1,0.7c-0.1,0.4-0.2,0.8-0.4,1.4c-0.2,0.6-0.5,1.1-0.8,1.7c-0.3,0.5-0.7,1-1.1,1.4
			c-0.4,0.4-0.8,0.6-1.3,0.6c-0.2,0-0.4-0.1-0.6-0.2c-0.1-0.2-0.2-0.4-0.3-0.6c-0.1-0.2-0.1-0.5-0.1-0.7c0-0.3,0-0.5,0-0.6
			c0-0.3,0-0.8,0.1-1.3c0.1-0.5,0.2-1,0.3-1.5c0.2-0.5,0.3-0.9,0.6-1.4c0.2-0.4,0.5-0.7,0.9-0.9C60.9,13,61,13,61.1,13
			c0.1,0,0.3,0,0.4,0h0.2c0.4,0,0.8,0,1.1,0.1c0.3,0.1,0.6,0.3,0.8,0.7C63.7,14,63.6,14.3,63.6,14.5z M64.2,11.5l-0.3,0.7
			c-0.3-0.2-0.6-0.4-0.9-0.5c-0.4-0.1-0.7-0.2-1-0.2c-0.9,0-1.6,0.2-2.2,0.6c-0.6,0.4-1.1,1-1.5,1.6c-0.4,0.7-0.7,1.4-0.9,2.2
			c-0.2,0.8-0.3,1.5-0.3,2.2c0,0.3,0,0.6,0.1,1.1c0,0.4,0.1,0.8,0.2,1.2c0.1,0.4,0.3,0.7,0.6,1c0.2,0.3,0.6,0.4,0.9,0.4
			c0.5,0,0.9-0.1,1.3-0.2c0.4-0.2,0.8-0.4,1.2-0.6c0.4-0.3,0.7-0.6,1-0.9c0.3-0.4,0.5-0.7,0.8-1.1c0,0.3-0.1,0.6-0.1,0.9
			c0,0.3,0,0.6,0,0.9c0,0.2,0,0.3,0,0.5c0,0.2,0,0.3,0,0.5h1.6c0-0.2,0-0.4,0-0.6c0-0.2,0-0.4,0-0.6c0-0.3,0-0.5,0-0.8
			c0-0.3,0-0.5,0.1-0.8c0.1-1.2,0.3-2.5,0.4-3.7c0.2-1.2,0.3-2.5,0.5-3.7H64.2z M49,12.1c-0.3-0.4-0.9-0.6-1.6-0.6
			c-0.8,0-1.5,0.2-2.2,0.6c-0.6,0.4-1.2,0.9-1.5,1.6v-1.9h-1.3c0,0.8-0.1,1.5-0.2,2.3c-0.1,1.3-0.3,2.5-0.4,3.7
			c-0.2,1.2-0.3,2.5-0.5,3.7h1.6l0.5-4.3c0.1-0.7,0.2-1.3,0.4-1.9c0.2-0.6,0.6-1.1,1-1.6l0.2-0.2l0.2-0.2c0.1,0,0.2-0.1,0.3-0.1
			s0.3-0.1,0.4-0.1c0.1,0,0.3,0,0.4-0.1c0.1,0,0.2,0,0.3,0c0.5,0,0.8,0.1,0.9,0.4c0.1,0.3,0.2,0.6,0.2,1c0,0.2,0,0.4,0,0.7
			c0,0.2-0.1,0.5-0.1,0.8c-0.1,1-0.2,1.9-0.4,2.8c-0.1,0.9-0.2,1.9-0.4,2.8h1.6c0.1-1,0.3-2.1,0.4-3.1c0.1-1,0.3-2.1,0.4-3.1
			l0.1-0.8c0-0.3,0-0.5,0-0.8C49.5,13,49.3,12.4,49,12.1z M37.6,14.4c-0.3,0.3-0.6,0.5-1,0.7c-0.4,0.2-0.8,0.4-1.2,0.5
			c-0.4,0.1-0.7,0.2-1,0.3c0.1-0.5,0.2-1.1,0.5-1.6c0.2-0.5,0.6-0.9,1.1-1.3c0.1-0.1,0.3-0.1,0.5-0.2c0.2,0,0.4,0,0.6,0
			c0.2,0,0.4,0,0.6,0.1c0.2,0.1,0.3,0.2,0.3,0.5C38,13.9,37.9,14.2,37.6,14.4z M39.5,12.3c-0.1-0.2-0.3-0.4-0.5-0.5
			c-0.2-0.1-0.5-0.2-0.7-0.2c-0.3,0-0.5-0.1-0.8-0.1c-0.7,0-1.4,0.2-1.9,0.5c-0.6,0.3-1,0.7-1.5,1.2c-0.4,0.5-0.7,1-1,1.7
			s-0.4,1.3-0.5,1.9c0,0.4-0.1,0.8-0.1,1.2c0,0.4,0,0.8,0.1,1.2c0.1,0.5,0.2,0.9,0.3,1.3c0.2,0.4,0.4,0.7,0.7,1
			c0.3,0.3,0.7,0.4,1.2,0.4c0.6,0,1.1-0.1,1.5-0.2c0.4-0.1,0.8-0.3,1.2-0.6c0.4-0.2,0.7-0.5,1-0.8c0.3-0.3,0.6-0.7,1-1.1l-1-0.7
			c-0.2,0.2-0.3,0.4-0.5,0.6c-0.2,0.2-0.4,0.4-0.6,0.6c-0.2,0.2-0.5,0.4-0.7,0.5c-0.3,0.1-0.5,0.2-0.8,0.2c-0.3,0-0.6-0.1-0.8-0.3
			c-0.2-0.2-0.3-0.4-0.4-0.7c-0.1-0.3-0.2-0.5-0.2-0.8c0-0.3,0-0.6,0-0.8v-0.3l0-0.3c0.5-0.1,1.1-0.3,1.7-0.5
			c0.6-0.2,1.2-0.5,1.7-0.8c0.5-0.3,1-0.7,1.3-1.2c0.4-0.5,0.5-1,0.5-1.7C39.7,12.7,39.6,12.5,39.5,12.3z M28.9,16.5
			c-0.1,0.5-0.2,1-0.3,1.5c-0.2,0.5-0.4,1-0.7,1.4c-0.3,0.4-0.6,0.7-1,0.9c-0.1,0.1-0.3,0.1-0.4,0.1c-0.2,0-0.3,0-0.5,0
			c-0.3,0-0.5,0-0.8-0.1c-0.3-0.1-0.5-0.2-0.7-0.4l0.9-7c0.3,0,0.6,0,0.9,0h0.9c0.4,0,0.7,0.1,0.9,0.2c0.2,0.1,0.4,0.3,0.6,0.5
			c0.1,0.2,0.2,0.5,0.3,0.7c0.1,0.3,0.1,0.6,0.1,0.9C29,15.5,29,16,28.9,16.5z M30.7,13.6c-0.1-0.4-0.2-0.8-0.4-1.1
			c-0.2-0.3-0.5-0.6-0.8-0.7c-0.3-0.2-0.8-0.3-1.3-0.3c-0.4,0-0.9,0-1.3,0c-0.4,0-0.9,0.1-1.3,0.1l0.3-2.4h-1.4
			c-0.1,0.4-0.2,0.8-0.3,1.3C24,11,24,11.4,23.9,11.9l-1.6,0.3l-0.1,0.8l1.6,0L22,27h1.6l0.7-5.5c0.2,0.1,0.5,0.2,0.7,0.3
			c0.2,0.1,0.5,0.1,0.7,0.1c0.9,0,1.7-0.2,2.3-0.6c0.6-0.4,1.2-1,1.6-1.7c0.4-0.7,0.7-1.4,0.9-2.2c0.2-0.8,0.3-1.6,0.3-2.4
			C30.8,14.5,30.8,14,30.7,13.6z M18.4,16.1c-0.3,0.8-0.6,1.5-1.1,2.2c-0.5,0.6-1.1,1.2-1.8,1.6c-0.7,0.4-1.5,0.6-2.4,0.6
			c-0.7,0-1.4-0.1-1.9-0.4c-0.5-0.3-1-0.7-1.3-1.1c-0.3-0.5-0.6-1-0.7-1.6c-0.2-0.6-0.2-1.3-0.2-1.9c0-0.8,0.1-1.6,0.4-2.4
			c0.3-0.8,0.6-1.5,1.1-2.2c0.5-0.7,1.1-1.2,1.8-1.6c0.7-0.4,1.5-0.6,2.4-0.6c0.7,0,1.4,0.1,1.9,0.4c0.5,0.3,1,0.7,1.3,1.1
			c0.3,0.5,0.6,1,0.7,1.6c0.2,0.6,0.2,1.3,0.2,1.9C18.8,14.4,18.6,15.2,18.4,16.1z M20.3,11c-0.3-0.8-0.6-1.5-1.1-2.1
			s-1.1-1-1.9-1.4C16.6,7.2,15.8,7,14.8,7c-1.1,0-2.1,0.2-3.1,0.7c-1,0.5-1.8,1.1-2.5,1.9c-0.7,0.8-1.2,1.7-1.6,2.7
			c-0.4,1-0.6,2.1-0.6,3.2c0,0.9,0.1,1.8,0.4,2.5c0.3,0.8,0.7,1.5,1.2,2s1.1,1,1.9,1.4c0.7,0.3,1.6,0.5,2.5,0.5
			c1.1,0,2.1-0.2,3.1-0.7c0.9-0.5,1.8-1.1,2.4-1.9c0.7-0.8,1.2-1.7,1.6-2.7c0.4-1,0.6-2,0.6-3.1C20.7,12.6,20.6,11.8,20.3,11z"/>
	</g>
	<g>
		<polygon class="st0" points="116.1,33.1 116.1,32.1 1.9,32.1 1.9,1.9 115.2,1.9 115.2,33.1 116.1,33.1 116.1,32.1 116.1,33.1 
			117,33.1 117,0 0,0 0,34 117,34 117,33.1 		"/>
	</g>
</g>
</svg>
